<?xml version="1.0" encoding="UTF-8"?>
<!DOCTYPE svg PUBLIC "-//W3C//DTD SVG 1.1//EN" "http://www.w3.org/Graphics/SVG/1.1/DTD/svg11.dtd">
<!-- Creator: CorelDRAW X5 -->
<svg xmlns="http://www.w3.org/2000/svg" xml:space="preserve" width="8.5in" height="11in" style="shape-rendering:geometricPrecision; text-rendering:geometricPrecision; image-rendering:optimizeQuality; fill-rule:evenodd; clip-rule:evenodd"
viewBox="0 0 8.5 11"
 xmlns:xlink="http://www.w3.org/1999/xlink">
 <defs>
  <style type="text/css">
   <![CDATA[
    .str0 {stroke:#2D2F62;stroke-width:0.00694488}
    .str1 {stroke:#59A0C6;stroke-width:0.00694488}
    .fil3 {fill:none;fill-rule:nonzero}
    .fil1 {fill:#2D2F62}
    .fil0 {fill:#59A0C6}
    .fil2 {fill:#2D2F62;fill-rule:nonzero}
    .fil4 {fill:#59A0C6;fill-rule:nonzero}
   ]]>
  </style>
 </defs>
 <g id="Layer_x0020_1">
  <metadata id="CorelCorpID_0Corel-Layer"/>
  <g id="_464152976">
   <polygon id="_464139992" class="fil0" points="2.4813,4.17076 3.05531,5.10306 1.84725,5.10306 "/>
   <polygon id="_464139968" class="fil1" points="5.51505,4.29911 5.01885,5.10306 6.05138,5.10306 "/>
   <polygon id="_464137784" class="fil1" points="4.1699,4.05525 3.49802,5.10306 4.82615,5.10306 5.31052,4.30004 "/>
   <polygon id="_464137664" class="fil1" points="3.95194,2.00835 3.48704,2.69194 4.61319,2.94722 "/>
   <polygon id="_464137544" class="fil0" points="3.55922,2.89509 4.16859,3.88988 5.27537,4.11124 4.64516,3.14248 "/>
   <polygon id="_464137400" class="fil1" points="3.40396,2.94018 2.64578,4.10602 3.27599,5.10602 4.00516,3.9706 "/>
   <path id="_464137808" class="fil2" d="M2.29626 6.4452c-0.0635197,0.0537953 -0.124445,0.0917126 -0.18278,0.114075 -0.0586575,0.0220354 -0.121528,0.0330551 -0.18861,0.0330551 -0.110835,0 -0.19574,-0.0268976 -0.25537,-0.0810197 -0.0593071,-0.0541181 -0.089122,-0.123472 -0.089122,-0.207406 0,-0.0495827 0.0110197,-0.0946299 0.0337047,-0.135465 0.0223622,-0.0408307 0.0518504,-0.073563 0.0881496,-0.0981929 0.0366181,-0.0246299 0.0774528,-0.0434252 0.123146,-0.0560669 0.0333819,-0.00874803 0.083937,-0.0175 0.151669,-0.0255984 0.138055,-0.0165315 0.239815,-0.0359724 0.304953,-0.0589843 0.000649606,-0.0233307 0.000972441,-0.0382402 0.000972441,-0.0443976 0,-0.0696772 -0.0162047,-0.118933 -0.0486102,-0.14713 -0.0434291,-0.0388898 -0.108567,-0.0580079 -0.194445,-0.0580079 -0.0803701,0 -0.139677,0.0139331 -0.17824,0.0421299 -0.0382441,0.0281929 -0.066437,0.0781024 -0.0849094,0.14972l-0.166898 -0.0230079c0.0152323,-0.0712953 0.040185,-0.129307 0.0748622,-0.173055 0.0346732,-0.0440748 0.0852283,-0.0781024 0.151016,-0.10176 0.0657874,-0.0236575 0.141945,-0.0356496 0.228799,-0.0356496 0.0862008,0 0.155878,0.0103701 0.209673,0.0304646 0.0537992,0.0204173 0.0933346,0.0456929 0.118937,0.0764803 0.0252756,0.0307874 0.0427756,0.0693504 0.0531496,0.116343 0.00550787,0.0291654 0.0084252,0.0816654 0.0084252,0.1575l0 0.227823c0,0.159122 0.00356299,0.259587 0.0110157,0.30139 0.00712992,0.0421299 0.0217165,0.0826417 0.0431024,0.121205l-0.178563 0c-0.0175,-0.0353228 -0.0291654,-0.0768071 -0.0340276,-0.124445zm-0.0142598 -0.38176c-0.0622244,0.0256024 -0.155232,0.0469921 -0.279028,0.064815 -0.0703228,0.0100472 -0.120232,0.0213898 -0.149075,0.0340276 -0.0291654,0.0126417 -0.0518504,0.0311102 -0.0674055,0.0557402 -0.0158819,0.0243071 -0.0239843,0.0512047 -0.0239843,0.0810197 0,0.0456969 0.0175,0.0836102 0.0518543,0.114075 0.0343504,0.0301378 0.0849055,0.0453701 0.151343,0.0453701 0.0657874,0 0.124445,-0.0142598 0.175646,-0.0431024 0.0512047,-0.0288425 0.089122,-0.068378 0.113102,-0.118287 0.0184724,-0.038563 0.0275472,-0.0956024 0.0275472,-0.170787l0 -0.0628701z"/>
   <path id="_4641378081" class="fil2" d="M2.90891 6.95594l0 -1.39449 0.155555 0 0 0.130925c0.0366181,-0.0512047 0.0781024,-0.0897677 0.124445,-0.11537 0.0460157,-0.0256024 0.102083,-0.0385669 0.16787,-0.0385669 0.0862047,0 0.162035,0.0223622 0.227823,0.066437 0.0661102,0.0443976 0.115693,0.106945 0.149075,0.187638 0.0337047,0.0806929 0.0505551,0.169165 0.0505551,0.265417 0,0.103055 -0.0184724,0.196063 -0.0557402,0.278705 -0.0369449,0.0826378 -0.0907402,0.145831 -0.16139,0.189906 -0.0706496,0.043752 -0.144862,0.0657874 -0.222638,0.0657874 -0.0570394,0 -0.107917,-0.0119921 -0.153287,-0.0359724 -0.0453701,-0.0239803 -0.082315,-0.0544449 -0.11148,-0.091063l0 0.490646 -0.170787 0zm0.154583 -0.88472c0,0.12963 0.026248,0.225555 0.078748,0.287776 0.0525,0.0618976 0.116343,0.0930118 0.190882,0.0930118 0.0758307,0 0.140972,-0.0320827 0.195091,-0.0965748 0.054122,-0.0641654 0.0813425,-0.163657 0.0813425,-0.298472 0,-0.128657 -0.0265709,-0.224583 -0.0793976,-0.288752 -0.0528228,-0.0638425 -0.11602,-0.0959252 -0.18926,-0.0959252 -0.0729134,0 -0.137406,0.0340276 -0.193472,0.102083 -0.056063,0.0680591 -0.0839331,0.167224 -0.0839331,0.296854z"/>
   <path id="_46413780812" class="fil2" d="M4.86938 6.24493l0.176622 0.0217126c-0.027874,0.103378 -0.0794016,0.183425 -0.154587,0.240461 -0.0755079,0.0567126 -0.17176,0.0852323 -0.288748,0.0852323 -0.147453,0 -0.264445,-0.0453701 -0.35065,-0.13611 -0.0865276,-0.0907402 -0.12963,-0.218102 -0.12963,-0.382083 0,-0.169815 0.043752,-0.30139 0.130925,-0.395047 0.0875,-0.0936575 0.200602,-0.14065 0.339957,-0.14065 0.134815,0 0.245,0.0460197 0.330232,0.137732 0.0855551,0.0917126 0.128331,0.22102 0.128331,0.387268 0,0.0103701 -0.000322835,0.0256024 -0.000972441,0.0456969l-0.75185 0c0.00615748,0.110831 0.0375906,0.19574 0.0939803,0.254398 0.0563898,0.0589803 0.12639,0.0884724 0.21065,0.0884724 0.0625472,0 0.116016,-0.0165276 0.160417,-0.0495827 0.0443976,-0.0327323 0.0793976,-0.0852323 0.105323,-0.1575zm-0.560972 -0.276437l0.562917 0c-0.00745276,-0.0845827 -0.0291654,-0.148425 -0.0644921,-0.190555 -0.0544449,-0.0657874 -0.125091,-0.0988425 -0.211618,-0.0988425 -0.0784291,0 -0.144539,0.026248 -0.198012,0.078748 -0.0534724,0.0525 -0.0829606,0.122827 -0.0887953,0.21065z"/>
   <path id="_464137808123" class="fil2" d="M5.33587 6.56965l0.368472 -0.524028 -0.340925 -0.484165 0.213563 0 0.154909 0.236248c0.0288425,0.0450472 0.0525,0.0826378 0.07,0.113102 0.0278701,-0.0418071 0.0534724,-0.078752 0.0771299,-0.111157l0.169811 -0.238193 0.204169 0 -0.348382 0.474768 0.374957 0.533425 -0.209677 0 -0.207083 -0.313378 -0.0550945 -0.0845866 -0.264768 0.397965 -0.207083 0z"/>
   <path id="_4641378081234" class="fil3 str0" d="M2.29626 6.4452c-0.0635197,0.0537953 -0.124445,0.0917126 -0.18278,0.114075 -0.0586575,0.0220354 -0.121528,0.0330551 -0.18861,0.0330551 -0.110835,0 -0.19574,-0.0268976 -0.25537,-0.0810197 -0.0593071,-0.0541181 -0.089122,-0.123472 -0.089122,-0.207406 0,-0.0495827 0.0110197,-0.0946299 0.0337047,-0.135465 0.0223622,-0.0408307 0.0518504,-0.073563 0.0881496,-0.0981929 0.0366181,-0.0246299 0.0774528,-0.0434252 0.123146,-0.0560669 0.0333819,-0.00874803 0.083937,-0.0175 0.151669,-0.0255984 0.138055,-0.0165315 0.239815,-0.0359724 0.304953,-0.0589843 0.000649606,-0.0233307 0.000972441,-0.0382402 0.000972441,-0.0443976 0,-0.0696772 -0.0162047,-0.118933 -0.0486102,-0.14713 -0.0434291,-0.0388898 -0.108567,-0.0580079 -0.194445,-0.0580079 -0.0803701,0 -0.139677,0.0139331 -0.17824,0.0421299 -0.0382441,0.0281929 -0.066437,0.0781024 -0.0849094,0.14972l-0.166898 -0.0230079c0.0152323,-0.0712953 0.040185,-0.129307 0.0748622,-0.173055 0.0346732,-0.0440748 0.0852283,-0.0781024 0.151016,-0.10176 0.0657874,-0.0236575 0.141945,-0.0356496 0.228799,-0.0356496 0.0862008,0 0.155878,0.0103701 0.209673,0.0304646 0.0537992,0.0204173 0.0933346,0.0456929 0.118937,0.0764803 0.0252756,0.0307874 0.0427756,0.0693504 0.0531496,0.116343 0.00550787,0.0291654 0.0084252,0.0816654 0.0084252,0.1575l0 0.227823c0,0.159122 0.00356299,0.259587 0.0110157,0.30139 0.00712992,0.0421299 0.0217165,0.0826417 0.0431024,0.121205l-0.178563 0c-0.0175,-0.0353228 -0.0291654,-0.0768071 -0.0340276,-0.124445zm-0.0142598 -0.38176c-0.0622244,0.0256024 -0.155232,0.0469921 -0.279028,0.064815 -0.0703228,0.0100472 -0.120232,0.0213898 -0.149075,0.0340276 -0.0291654,0.0126417 -0.0518504,0.0311102 -0.0674055,0.0557402 -0.0158819,0.0243071 -0.0239843,0.0512047 -0.0239843,0.0810197 0,0.0456969 0.0175,0.0836102 0.0518543,0.114075 0.0343504,0.0301378 0.0849055,0.0453701 0.151343,0.0453701 0.0657874,0 0.124445,-0.0142598 0.175646,-0.0431024 0.0512047,-0.0288425 0.089122,-0.068378 0.113102,-0.118287 0.0184724,-0.038563 0.0275472,-0.0956024 0.0275472,-0.170787l0 -0.0628701z"/>
   <path id="_46413780812345" class="fil3 str0" d="M2.90891 6.95594l0 -1.39449 0.155555 0 0 0.130925c0.0366181,-0.0512047 0.0781024,-0.0897677 0.124445,-0.11537 0.0460157,-0.0256024 0.102083,-0.0385669 0.16787,-0.0385669 0.0862047,0 0.162035,0.0223622 0.227823,0.066437 0.0661102,0.0443976 0.115693,0.106945 0.149075,0.187638 0.0337047,0.0806929 0.0505551,0.169165 0.0505551,0.265417 0,0.103055 -0.0184724,0.196063 -0.0557402,0.278705 -0.0369449,0.0826378 -0.0907402,0.145831 -0.16139,0.189906 -0.0706496,0.043752 -0.144862,0.0657874 -0.222638,0.0657874 -0.0570394,0 -0.107917,-0.0119921 -0.153287,-0.0359724 -0.0453701,-0.0239803 -0.082315,-0.0544449 -0.11148,-0.091063l0 0.490646 -0.170787 0zm0.154583 -0.88472c0,0.12963 0.026248,0.225555 0.078748,0.287776 0.0525,0.0618976 0.116343,0.0930118 0.190882,0.0930118 0.0758307,0 0.140972,-0.0320827 0.195091,-0.0965748 0.054122,-0.0641654 0.0813425,-0.163657 0.0813425,-0.298472 0,-0.128657 -0.0265709,-0.224583 -0.0793976,-0.288752 -0.0528228,-0.0638425 -0.11602,-0.0959252 -0.18926,-0.0959252 -0.0729134,0 -0.137406,0.0340276 -0.193472,0.102083 -0.056063,0.0680591 -0.0839331,0.167224 -0.0839331,0.296854z"/>
   <path id="_464137808123456" class="fil3 str0" d="M4.86938 6.24493l0.176622 0.0217126c-0.027874,0.103378 -0.0794016,0.183425 -0.154587,0.240461 -0.0755079,0.0567126 -0.17176,0.0852323 -0.288748,0.0852323 -0.147453,0 -0.264445,-0.0453701 -0.35065,-0.13611 -0.0865276,-0.0907402 -0.12963,-0.218102 -0.12963,-0.382083 0,-0.169815 0.043752,-0.30139 0.130925,-0.395047 0.0875,-0.0936575 0.200602,-0.14065 0.339957,-0.14065 0.134815,0 0.245,0.0460197 0.330232,0.137732 0.0855551,0.0917126 0.128331,0.22102 0.128331,0.387268 0,0.0103701 -0.000322835,0.0256024 -0.000972441,0.0456969l-0.75185 0c0.00615748,0.110831 0.0375906,0.19574 0.0939803,0.254398 0.0563898,0.0589803 0.12639,0.0884724 0.21065,0.0884724 0.0625472,0 0.116016,-0.0165276 0.160417,-0.0495827 0.0443976,-0.0327323 0.0793976,-0.0852323 0.105323,-0.1575zm-0.560972 -0.276437l0.562917 0c-0.00745276,-0.0845827 -0.0291654,-0.148425 -0.0644921,-0.190555 -0.0544449,-0.0657874 -0.125091,-0.0988425 -0.211618,-0.0988425 -0.0784291,0 -0.144539,0.026248 -0.198012,0.078748 -0.0534724,0.0525 -0.0829606,0.122827 -0.0887953,0.21065z"/>
   <path id="_4641378081234567" class="fil3 str0" d="M5.33587 6.56965l0.368472 -0.524028 -0.340925 -0.484165 0.213563 0 0.154909 0.236248c0.0288425,0.0450472 0.0525,0.0826378 0.07,0.113102 0.0278701,-0.0418071 0.0534724,-0.078752 0.0771299,-0.111157l0.169811 -0.238193 0.204169 0 -0.348382 0.474768 0.374957 0.533425 -0.209677 0 -0.207083 -0.313378 -0.0550945 -0.0845866 -0.264768 0.397965 -0.207083 0z"/>
   <polygon id="_464153384" class="fil4" points="1.18477,7.43421 1.18477,6.99676 1.27317,6.99676 1.27317,7.16889 1.44622,7.16889 1.44622,6.99676 1.53452,6.99676 1.53452,7.43421 1.44622,7.43421 1.44622,7.24293 1.27317,7.24293 1.27317,7.43421 "/>
   <path id="_4641533841" class="fil4" d="M1.65923 6.99676l0.0883031 0 0 0.236906c0,0.0375827 0.00112205,0.0620276 0.00325984,0.073126 0.00377165,0.0179291 0.0128346,0.0322874 0.0269921,0.0430866 0.0142598,0.0108976 0.0337126,0.0162953 0.0583622,0.0162953 0.0250551,0 0.0439961,-0.00509449 0.0567283,-0.0153819 0.0127323,-0.010185 0.0203701,-0.022815 0.0229173,-0.037685 0.00264961,-0.0149724 0.00387008,-0.0397205 0.00387008,-0.0743504l0 -0.241996 0.0883031 0 0 0.229776c0,0.0525551 -0.00234252,0.089626 -0.00712598,0.111323 -0.0047874,0.0216929 -0.0135472,0.0399252 -0.0263819,0.0548976 -0.0128307,0.0148701 -0.0300433,0.0267874 -0.0514331,0.0356457 -0.0214921,0.0088622 -0.0496024,0.0132441 -0.0842323,0.0132441 -0.0417598,0 -0.0734331,-0.0047874 -0.0950276,-0.0144646 -0.0215906,-0.00967717 -0.0386024,-0.0222047 -0.0511299,-0.0375827 -0.0125276,-0.0153819 -0.0207756,-0.0315748 -0.024748,-0.0484803 -0.00580709,-0.0250551 -0.00865748,-0.0620276 -0.00865748,-0.11102l0 -0.233339z"/>
   <polygon id="_46415338412" class="fil4" points="2.13389,7.43421 2.13389,6.99676 2.26609,6.99676 2.34544,7.29518 2.42386,6.99676 2.55637,6.99676 2.55637,7.43421 2.47438,7.43421 2.47438,7.08985 2.3875,7.43421 2.30246,7.43421 2.21588,7.08985 2.21588,7.43421 "/>
   <path id="_464153384123" class="fil4" d="M3.07259 7.43421l-0.0961457 0 -0.0381929 -0.0994055 -0.174878 0 -0.0360551 0.0994055 -0.0937047 0 0.170398 -0.437449 0.0933976 0 0.175181 0.437449zm-0.162654 -0.173043l-0.0602953 -0.16235 -0.0590748 0.16235 0.11937 0z"/>
   <polygon id="_4641533841234" class="fil4" points="3.15421,7.43421 3.15421,6.99676 3.24018,6.99676 3.41923,7.28887 3.41923,6.99676 3.50132,6.99676 3.50132,7.43421 3.41261,7.43421 3.23631,7.14893 3.23631,7.43421 "/>
   <path id="_46415338412345" class="fil4" d="M4.1123 7.27339l0.0855551 0.0270906c-0.0131378,0.0477717 -0.0349331,0.0832126 -0.0654882,0.106437 -0.0304528,0.0231181 -0.0692598,0.0347323 -0.116213,0.0347323 -0.0580551,0 -0.105823,-0.0198622 -0.143201,-0.0594843 -0.0373819,-0.0397205 -0.056122,-0.0940079 -0.056122,-0.162756 0,-0.0728228 0.0188425,-0.12935 0.0564252,-0.169685 0.0375827,-0.0402323 0.0869803,-0.0603976 0.148295,-0.0603976 0.0534724,0 0.0969646,0.0157874 0.13037,0.0474646 0.0199646,0.0186378 0.0348346,0.0455276 0.044815,0.080563l-0.0874921 0.020878c-0.00509055,-0.0227126 -0.0158858,-0.0406378 -0.0323858,-0.0537756 -0.0163976,-0.0131378 -0.0363622,-0.0196575 -0.0597874,-0.0196575 -0.0323898,0 -0.0587677,0.0116102 -0.078937,0.0349331 -0.0201654,0.0232244 -0.030248,0.0609094 -0.030248,0.113055 0,0.0553071 0.00987795,0.0947244 0.0298425,0.11815 0.0198622,0.0235276 0.0457323,0.0352402 0.0775079,0.0352402 0.0235276,0 0.0436969,-0.00743701 0.0606024,-0.0224094 0.0169055,-0.0148701 0.0290276,-0.0383976 0.0364606,-0.070378z"/>
   <path id="_464153384123456" class="fil4" d="M4.70216 7.43421l-0.0961457 0 -0.0381929 -0.0994055 -0.174878 0 -0.0360551 0.0994055 -0.0937047 0 0.170398 -0.437449 0.0933976 0 0.175181 0.437449zm-0.162654 -0.173043l-0.0602953 -0.16235 -0.0590748 0.16235 0.11937 0z"/>
   <path id="_4641533841234567" class="fil4" d="M4.78297 7.43421l0 -0.437449 0.141677 0c0.0536732,0 0.0887126,0.00224016 0.105008,0.00661811 0.0250551,0.00651969 0.0461378,0.0207795 0.0630433,0.0427795 0.0169094,0.022 0.0253622,0.0504134 0.0253622,0.0851457 0,0.0268898 -0.00488976,0.0495 -0.0146654,0.0677323 -0.00977953,0.0183307 -0.0221024,0.0326929 -0.0371772,0.043185 -0.0149724,0.0103858 -0.030248,0.017315 -0.0457323,0.0206732 -0.0210827,0.00417717 -0.0516378,0.00631496 -0.0916654,0.00631496l-0.0575433 0 0 0.165 -0.0883071 0zm0.0883071 -0.363406l0 0.124055 0.0482756 0c0.0348346,0 0.0581575,-0.00224016 0.0698701,-0.00682283 0.0117126,-0.00458268 0.020878,-0.0117126 0.0276024,-0.0214921 0.00661811,-0.00977559 0.00998031,-0.0210827 0.00998031,-0.0340157 0,-0.0158898 -0.00468504,-0.0290276 -0.0140551,-0.0394173 -0.00926772,-0.0102874 -0.021185,-0.0168071 -0.0354449,-0.0193543 -0.0105906,-0.00203543 -0.0317756,-0.00295276 -0.0635551,-0.00295276l-0.0426732 0z"/>
   <polygon id="_46415338412345678" class="fil4" points="5.22178,7.43421 5.22178,6.99676 5.31009,6.99676 5.31009,7.43421 "/>
   <polygon id="_464153384123456789" class="fil4" points="5.52667,7.43421 5.52667,7.0708 5.39691,7.0708 5.39691,6.99676 5.74452,6.99676 5.74452,7.0708 5.61507,7.0708 5.61507,7.43421 "/>
   <path id="_46415338412345678910" class="fil4" d="M6.18466 7.43421l-0.0961457 0 -0.0381929 -0.0994055 -0.174878 0 -0.0360551 0.0994055 -0.0937047 0 0.170398 -0.437449 0.0933976 0 0.175181 0.437449zm-0.162654 -0.173043l-0.0602953 -0.16235 -0.0590748 0.16235 0.11937 0z"/>
   <polygon id="_4641533841234567891011" class="fil4" points="6.26781,7.43421 6.26781,7.00032 6.35612,7.00032 6.35612,7.36047 6.57571,7.36047 6.57571,7.43421 "/>
   <polygon id="_464153384123456789101112" class="fil3 str1" points="1.18477,7.43421 1.18477,6.99676 1.27317,6.99676 1.27317,7.16889 1.44622,7.16889 1.44622,6.99676 1.53452,6.99676 1.53452,7.43421 1.44622,7.43421 1.44622,7.24293 1.27317,7.24293 1.27317,7.43421 "/>
   <path id="_46415338412345678910111213" class="fil3 str1" d="M1.65923 6.99676l0.0883031 0 0 0.236906c0,0.0375827 0.00112205,0.0620276 0.00325984,0.073126 0.00377165,0.0179291 0.0128346,0.0322874 0.0269921,0.0430866 0.0142598,0.0108976 0.0337126,0.0162953 0.0583622,0.0162953 0.0250551,0 0.0439961,-0.00509449 0.0567283,-0.0153819 0.0127323,-0.010185 0.0203701,-0.022815 0.0229173,-0.037685 0.00264961,-0.0149724 0.00387008,-0.0397205 0.00387008,-0.0743504l0 -0.241996 0.0883031 0 0 0.229776c0,0.0525551 -0.00234252,0.089626 -0.00712598,0.111323 -0.0047874,0.0216929 -0.0135472,0.0399252 -0.0263819,0.0548976 -0.0128307,0.0148701 -0.0300433,0.0267874 -0.0514331,0.0356457 -0.0214921,0.0088622 -0.0496024,0.0132441 -0.0842323,0.0132441 -0.0417598,0 -0.0734331,-0.0047874 -0.0950276,-0.0144646 -0.0215906,-0.00967717 -0.0386024,-0.0222047 -0.0511299,-0.0375827 -0.0125276,-0.0153819 -0.0207756,-0.0315748 -0.024748,-0.0484803 -0.00580709,-0.0250551 -0.00865748,-0.0620276 -0.00865748,-0.11102l0 -0.233339z"/>
   <polygon id="_4641533841234567891011121314" class="fil3 str1" points="2.13389,7.43421 2.13389,6.99676 2.26609,6.99676 2.34544,7.29518 2.42386,6.99676 2.55637,6.99676 2.55637,7.43421 2.47438,7.43421 2.47438,7.08985 2.3875,7.43421 2.30246,7.43421 2.21588,7.08985 2.21588,7.43421 "/>
   <path id="_464153384123456789101112131415" class="fil3 str1" d="M3.07259 7.43421l-0.0961457 0 -0.0381929 -0.0994055 -0.174878 0 -0.0360551 0.0994055 -0.0937047 0 0.170398 -0.437449 0.0933976 0 0.175181 0.437449zm-0.162654 -0.173043l-0.0602953 -0.16235 -0.0590748 0.16235 0.11937 0z"/>
   <polygon id="_46415338412345678910111213141516" class="fil3 str1" points="3.15421,7.43421 3.15421,6.99676 3.24018,6.99676 3.41923,7.28887 3.41923,6.99676 3.50132,6.99676 3.50132,7.43421 3.41261,7.43421 3.23631,7.14893 3.23631,7.43421 "/>
   <path id="_4641533841234567891011121314151617" class="fil3 str1" d="M4.1123 7.27339l0.0855551 0.0270906c-0.0131378,0.0477717 -0.0349331,0.0832126 -0.0654882,0.106437 -0.0304528,0.0231181 -0.0692598,0.0347323 -0.116213,0.0347323 -0.0580551,0 -0.105823,-0.0198622 -0.143201,-0.0594843 -0.0373819,-0.0397205 -0.056122,-0.0940079 -0.056122,-0.162756 0,-0.0728228 0.0188425,-0.12935 0.0564252,-0.169685 0.0375827,-0.0402323 0.0869803,-0.0603976 0.148295,-0.0603976 0.0534724,0 0.0969646,0.0157874 0.13037,0.0474646 0.0199646,0.0186378 0.0348346,0.0455276 0.044815,0.080563l-0.0874921 0.020878c-0.00509055,-0.0227126 -0.0158858,-0.0406378 -0.0323858,-0.0537756 -0.0163976,-0.0131378 -0.0363622,-0.0196575 -0.0597874,-0.0196575 -0.0323898,0 -0.0587677,0.0116102 -0.078937,0.0349331 -0.0201654,0.0232244 -0.030248,0.0609094 -0.030248,0.113055 0,0.0553071 0.00987795,0.0947244 0.0298425,0.11815 0.0198622,0.0235276 0.0457323,0.0352402 0.0775079,0.0352402 0.0235276,0 0.0436969,-0.00743701 0.0606024,-0.0224094 0.0169055,-0.0148701 0.0290276,-0.0383976 0.0364606,-0.070378z"/>
   <path id="_464153384123456789101112131415161718" class="fil3 str1" d="M4.70216 7.43421l-0.0961457 0 -0.0381929 -0.0994055 -0.174878 0 -0.0360551 0.0994055 -0.0937047 0 0.170398 -0.437449 0.0933976 0 0.175181 0.437449zm-0.162654 -0.173043l-0.0602953 -0.16235 -0.0590748 0.16235 0.11937 0z"/>
   <path id="_46415338412345678910111213141516171819" class="fil3 str1" d="M4.78297 7.43421l0 -0.437449 0.141677 0c0.0536732,0 0.0887126,0.00224016 0.105008,0.00661811 0.0250551,0.00651969 0.0461378,0.0207795 0.0630433,0.0427795 0.0169094,0.022 0.0253622,0.0504134 0.0253622,0.0851457 0,0.0268898 -0.00488976,0.0495 -0.0146654,0.0677323 -0.00977953,0.0183307 -0.0221024,0.0326929 -0.0371772,0.043185 -0.0149724,0.0103858 -0.030248,0.017315 -0.0457323,0.0206732 -0.0210827,0.00417717 -0.0516378,0.00631496 -0.0916654,0.00631496l-0.0575433 0 0 0.165 -0.0883071 0zm0.0883071 -0.363406l0 0.124055 0.0482756 0c0.0348346,0 0.0581575,-0.00224016 0.0698701,-0.00682283 0.0117126,-0.00458268 0.020878,-0.0117126 0.0276024,-0.0214921 0.00661811,-0.00977559 0.00998031,-0.0210827 0.00998031,-0.0340157 0,-0.0158898 -0.00468504,-0.0290276 -0.0140551,-0.0394173 -0.00926772,-0.0102874 -0.021185,-0.0168071 -0.0354449,-0.0193543 -0.0105906,-0.00203543 -0.0317756,-0.00295276 -0.0635551,-0.00295276l-0.0426732 0z"/>
   <polygon id="_4641533841234567891011121314151617181920" class="fil3 str1" points="5.22178,7.43421 5.22178,6.99676 5.31009,6.99676 5.31009,7.43421 "/>
   <polygon id="_464153384123456789101112131415161718192021" class="fil3 str1" points="5.52667,7.43421 5.52667,7.0708 5.39691,7.0708 5.39691,6.99676 5.74452,6.99676 5.74452,7.0708 5.61507,7.0708 5.61507,7.43421 "/>
   <path id="_46415338412345678910111213141516171819202122" class="fil3 str1" d="M6.18466 7.43421l-0.0961457 0 -0.0381929 -0.0994055 -0.174878 0 -0.0360551 0.0994055 -0.0937047 0 0.170398 -0.437449 0.0933976 0 0.175181 0.437449zm-0.162654 -0.173043l-0.0602953 -0.16235 -0.0590748 0.16235 0.11937 0z"/>
   <polygon id="_4641533841234567891011121314151617181920212223" class="fil3 str1" points="6.26781,7.43421 6.26781,7.00032 6.35612,7.00032 6.35612,7.36047 6.57571,7.36047 6.57571,7.43421 "/>
  </g>
 </g>
</svg>
