<svg width="96" height="96" xmlns="http://www.w3.org/2000/svg" xmlns:xlink="http://www.w3.org/1999/xlink" overflow="hidden"><defs><clipPath id="clip0"><rect x="122" y="888" width="96" height="96"/></clipPath></defs><g clip-path="url(#clip0)" transform="translate(-122 -888)"><path d="M149 920C149 921.105 148.105 922 147 922 145.895 922 145 921.105 145 920 145 918.895 145.895 918 147 918 148.105 918 149 918.895 149 920Z"/><path d="M149 928C149 929.105 148.105 930 147 930 145.895 930 145 929.105 145 928 145 926.895 145.895 926 147 926 148.105 926 149 926.895 149 928Z"/><path d="M145 924C145 925.105 144.105 926 143 926 141.895 926 141 925.105 141 924 141 922.895 141.895 922 143 922 144.105 922 145 922.895 145 924Z"/><path d="M153 924C153 925.105 152.105 926 151 926 149.895 926 149 925.105 149 924 149 922.895 149.895 922 151 922 152.105 922 153 922.895 153 924Z"/><path d="M177 916C177 917.105 176.105 918 175 918 173.895 918 173 917.105 173 916 173 914.895 173.895 914 175 914 176.105 914 177 914.895 177 916Z"/><path d="M177 924C177 925.105 176.105 926 175 926 173.895 926 173 925.105 173 924 173 922.895 173.895 922 175 922 176.105 922 177 922.895 177 924Z"/><path d="M173 920C173 921.105 172.105 922 171 922 169.895 922 169 921.105 169 920 169 918.895 169.895 918 171 918 172.105 918 173 918.895 173 920Z"/><path d="M181 920C181 921.105 180.105 922 179 922 177.895 922 177 921.105 177 920 177 918.895 177.895 918 179 918 180.105 918 181 918.895 181 920Z"/><path d="M204 933 198 939 190 939 190 961 198 961 204 967 210 967 210 933Z"/><path d="M175 929C170 929 166 925 166 920 166 915 170 911 175 911 180 911 184 915 184 920 184 925 180 929 175 929ZM178 961C176.9 961 176 960.1 176 959 176 957.9 176.9 957 178 957 179.1 957 180 957.9 180 959 180 960.1 179.1 961 178 961ZM159 933C160.3 931.2 161.3 929.2 161.7 926.9 163 929.4 165.1 931.5 167.5 933L159 933ZM147 933C142 933 138 929 138 924 138 919 142 915 147 915 152 915 156 919 156 924 156 929 152 933 147 933ZM182.4 933C186.9 930.4 190 925.6 190 920 190 911.7 183.3 905 175 905 167.7 905 161.7 910.2 160.3 917.1 157.8 912.3 152.8 909 147 909 138.7 909 132 915.7 132 924 132 928.9 134.4 933.2 138 936L138 939 136 939 134 937 130 937 130 947 134 947 136 945 138 945 138 963C138 965.2 139.8 967 142 967L182 967C184.2 967 186 965.2 186 963L186 937C186 934.9 184.4 933.2 182.4 933Z"/></g></svg>